<?xml version="1.0" encoding="UTF-8"?>
<svg xmlns="http://www.w3.org/2000/svg" width="1104" height="1425" viewBox="0 0 1104 1425" role="img" aria-labelledby="svg-title svg-description">
  <title id="svg-title">PILGRIM — 3x3 Circle Grid</title>
  <desc id="svg-description">Nine parchment spaces on a green hexagon: eight named actions around a central City, linked by clockwise ring arrows and four arrows to and from the middle. Each space shows its cube counts as four columns on a shared baseline.</desc>

  <defs>
    <radialGradient id="parchment-gradient" cx="42%" cy="35%" r="72%">
      <stop offset="0%" stop-color="#F0E7D2" />
      <stop offset="100%" stop-color="#E4D9BC" />
    </radialGradient>
    <radialGradient id="hex-gradient" cx="50%" cy="44%" r="70%">
      <stop offset="0%" stop-color="#9CCB78" />
      <stop offset="100%" stop-color="#8FBF6B" />
    </radialGradient>
    <clipPath id="produce-capsule-clip">
      <path d="M 529.3,428.5 H 573.3 A 24,24 0 0 1 573.3,476.5 H 529.3 A 24,24 0 0 1 529.3,428.5 Z" />
    </clipPath>
    <style>
      .board-circle {
        fill: url(#parchment-gradient);
        stroke: #000000;
        stroke-width: 2.438679;
      }
      .circle-label {
        fill: #3A2F1E;
        font-family: Georgia, "Times New Roman", serif;
        font-size: 15.5px;
        font-weight: 700;
        text-anchor: middle;
        dominant-baseline: middle;
      }
      .arrow-border {
        fill: none;
        stroke: #000000;
        stroke-width: 6;
        stroke-linecap: round;
        stroke-linejoin: round;
      }
      .arrow-interior {
        fill: #FFFFFF;
        stroke: none;
      }
    </style>
  </defs>

  <rect width="1104" height="1425" fill="#000000" />
  <rect x="33" y="120" width="1038" height="1174" rx="12" fill="none" stroke="#333333" stroke-width="1.5" />

  <text x="552" y="48" fill="#F2EEDF" font-family="Georgia, 'Times New Roman', serif" font-size="30" font-weight="700" text-anchor="middle">
    PILGRIM — 3x3 Circle Grid
  </text>
  <text x="552" y="69" fill="#D6D2C9" font-family="Helvetica, Arial, sans-serif" font-size="13.5" text-anchor="middle">
    <tspan x="552" dy="0">Eight action spaces around a central City, sown clockwise. Each space shows how many cubes</tspan>
    <tspan x="552" dy="17">each player has there, as four columns on a shared baseline.</tspan>
  </text>

  <g transform="translate(551.5 718.7) scale(0.820116054) translate(-551.5 -718.7)">
    <path d="M 550,182 L 988,439 L 988,957 L 553,1216 L 114,957 L 114,440 Z" fill="url(#hex-gradient)" stroke="#8FBF6B" stroke-width="4" stroke-linejoin="round" />

    <g aria-label="Clockwise outer arrows">
      <g transform="rotate(0 551.5 718.7)"><path d="M 367.42,376.12 C 368.15,375.90 370.36,375.28 371.78,374.76 C 373.20,374.25 374.54,373.61 375.92,373.02 C 377.29,372.44 378.66,371.84 380.04,371.26 C 381.41,370.67 382.78,370.08 384.15,369.50 C 385.53,368.92 386.90,368.34 388.28,367.77 C 389.66,367.20 391.03,366.64 392.41,366.08 C 393.79,365.52 395.18,364.96 396.56,364.41 C 397.95,363.87 399.33,363.33 400.72,362.79 C 402.11,362.26 403.50,361.73 404.89,361.21 C 406.29,360.68 407.68,360.17 409.08,359.67 C 410.47,359.16 411.88,358.66 413.28,358.16 C 414.68,357.67 416.79,356.95 417.49,356.71 Q 417.44,361.25 412.55,367.70 L 439.10,345.25 L 403.33,344.46 L 414.71,349.21 C 414.01,349.49 411.90,350.35 410.50,350.93 C 409.10,351.51 407.70,352.10 406.31,352.70 C 404.92,353.30 403.53,353.91 402.15,354.53 C 400.76,355.14 399.39,355.77 398.01,356.40 C 396.64,357.04 395.27,357.69 393.90,358.34 C 392.54,359.00 391.18,359.66 389.82,360.33 C 388.47,361.01 387.12,361.69 385.77,362.38 C 384.43,363.08 383.09,363.78 381.76,364.50 C 380.43,365.21 379.10,365.94 377.78,366.68 C 376.46,367.42 375.15,368.17 373.85,368.95 C 372.55,369.72 371.23,370.46 369.99,371.33 C 368.74,372.20 366.99,373.71 366.39,374.18 Z" class="arrow-border" /><path d="M 367.42,376.12 C 368.15,375.90 370.36,375.28 371.78,374.76 C 373.20,374.25 374.54,373.61 375.92,373.02 C 377.29,372.44 378.66,371.84 380.04,371.26 C 381.41,370.67 382.78,370.08 384.15,369.50 C 385.53,368.92 386.90,368.34 388.28,367.77 C 389.66,367.20 391.03,366.64 392.41,366.08 C 393.79,365.52 395.18,364.96 396.56,364.41 C 397.95,363.87 399.33,363.33 400.72,362.79 C 402.11,362.26 403.50,361.73 404.89,361.21 C 406.29,360.68 407.68,360.17 409.08,359.67 C 410.47,359.16 411.88,358.66 413.28,358.16 C 414.68,357.67 416.79,356.95 417.49,356.71 Q 417.44,361.25 412.55,367.70 L 439.10,345.25 L 403.33,344.46 L 414.71,349.21 C 414.01,349.49 411.90,350.35 410.50,350.93 C 409.10,351.51 407.70,352.10 406.31,352.70 C 404.92,353.30 403.53,353.91 402.15,354.53 C 400.76,355.14 399.39,355.77 398.01,356.40 C 396.64,357.04 395.27,357.69 393.90,358.34 C 392.54,359.00 391.18,359.66 389.82,360.33 C 388.47,361.01 387.12,361.69 385.77,362.38 C 384.43,363.08 383.09,363.78 381.76,364.50 C 380.43,365.21 379.10,365.94 377.78,366.68 C 376.46,367.42 375.15,368.17 373.85,368.95 C 372.55,369.72 371.23,370.46 369.99,371.33 C 368.74,372.20 366.99,373.71 366.39,374.18 Z" class="arrow-interior" /></g>
      <g transform="rotate(45 551.5 718.7)"><path d="M 367.42,376.12 C 368.15,375.90 370.36,375.28 371.78,374.76 C 373.20,374.25 374.54,373.61 375.92,373.02 C 377.29,372.44 378.66,371.84 380.04,371.26 C 381.41,370.67 382.78,370.08 384.15,369.50 C 385.53,368.92 386.90,368.34 388.28,367.77 C 389.66,367.20 391.03,366.64 392.41,366.08 C 393.79,365.52 395.18,364.96 396.56,364.41 C 397.95,363.87 399.33,363.33 400.72,362.79 C 402.11,362.26 403.50,361.73 404.89,361.21 C 406.29,360.68 407.68,360.17 409.08,359.67 C 410.47,359.16 411.88,358.66 413.28,358.16 C 414.68,357.67 416.79,356.95 417.49,356.71 Q 417.44,361.25 412.55,367.70 L 439.10,345.25 L 403.33,344.46 L 414.71,349.21 C 414.01,349.49 411.90,350.35 410.50,350.93 C 409.10,351.51 407.70,352.10 406.31,352.70 C 404.92,353.30 403.53,353.91 402.15,354.53 C 400.76,355.14 399.39,355.77 398.01,356.40 C 396.64,357.04 395.27,357.69 393.90,358.34 C 392.54,359.00 391.18,359.66 389.82,360.33 C 388.47,361.01 387.12,361.69 385.77,362.38 C 384.43,363.08 383.09,363.78 381.76,364.50 C 380.43,365.21 379.10,365.94 377.78,366.68 C 376.46,367.42 375.15,368.17 373.85,368.95 C 372.55,369.72 371.23,370.46 369.99,371.33 C 368.74,372.20 366.99,373.71 366.39,374.18 Z" class="arrow-border" /><path d="M 367.42,376.12 C 368.15,375.90 370.36,375.28 371.78,374.76 C 373.20,374.25 374.54,373.61 375.92,373.02 C 377.29,372.44 378.66,371.84 380.04,371.26 C 381.41,370.67 382.78,370.08 384.15,369.50 C 385.53,368.92 386.90,368.34 388.28,367.77 C 389.66,367.20 391.03,366.64 392.41,366.08 C 393.79,365.52 395.18,364.96 396.56,364.41 C 397.95,363.87 399.33,363.33 400.72,362.79 C 402.11,362.26 403.50,361.73 404.89,361.21 C 406.29,360.68 407.68,360.17 409.08,359.67 C 410.47,359.16 411.88,358.66 413.28,358.16 C 414.68,357.67 416.79,356.95 417.49,356.71 Q 417.44,361.25 412.55,367.70 L 439.10,345.25 L 403.33,344.46 L 414.71,349.21 C 414.01,349.49 411.90,350.35 410.50,350.93 C 409.10,351.51 407.70,352.10 406.31,352.70 C 404.92,353.30 403.53,353.91 402.15,354.53 C 400.76,355.14 399.39,355.77 398.01,356.40 C 396.64,357.04 395.27,357.69 393.90,358.34 C 392.54,359.00 391.18,359.66 389.82,360.33 C 388.47,361.01 387.12,361.69 385.77,362.38 C 384.43,363.08 383.09,363.78 381.76,364.50 C 380.43,365.21 379.10,365.94 377.78,366.68 C 376.46,367.42 375.15,368.17 373.85,368.95 C 372.55,369.72 371.23,370.46 369.99,371.33 C 368.74,372.20 366.99,373.71 366.39,374.18 Z" class="arrow-interior" /></g>
      <g transform="rotate(90 551.5 718.7)"><path d="M 367.42,376.12 C 368.15,375.90 370.36,375.28 371.78,374.76 C 373.20,374.25 374.54,373.61 375.92,373.02 C 377.29,372.44 378.66,371.84 380.04,371.26 C 381.41,370.67 382.78,370.08 384.15,369.50 C 385.53,368.92 386.90,368.34 388.28,367.77 C 389.66,367.20 391.03,366.64 392.41,366.08 C 393.79,365.52 395.18,364.96 396.56,364.41 C 397.95,363.87 399.33,363.33 400.72,362.79 C 402.11,362.26 403.50,361.73 404.89,361.21 C 406.29,360.68 407.68,360.17 409.08,359.67 C 410.47,359.16 411.88,358.66 413.28,358.16 C 414.68,357.67 416.79,356.95 417.49,356.71 Q 417.44,361.25 412.55,367.70 L 439.10,345.25 L 403.33,344.46 L 414.71,349.21 C 414.01,349.49 411.90,350.35 410.50,350.93 C 409.10,351.51 407.70,352.10 406.31,352.70 C 404.92,353.30 403.53,353.91 402.15,354.53 C 400.76,355.14 399.39,355.77 398.01,356.40 C 396.64,357.04 395.27,357.69 393.90,358.34 C 392.54,359.00 391.18,359.66 389.82,360.33 C 388.47,361.01 387.12,361.69 385.77,362.38 C 384.43,363.08 383.09,363.78 381.76,364.50 C 380.43,365.21 379.10,365.94 377.78,366.68 C 376.46,367.42 375.15,368.17 373.85,368.95 C 372.55,369.72 371.23,370.46 369.99,371.33 C 368.74,372.20 366.99,373.71 366.39,374.18 Z" class="arrow-border" /><path d="M 367.42,376.12 C 368.15,375.90 370.36,375.28 371.78,374.76 C 373.20,374.25 374.54,373.61 375.92,373.02 C 377.29,372.44 378.66,371.84 380.04,371.26 C 381.41,370.67 382.78,370.08 384.15,369.50 C 385.53,368.92 386.90,368.34 388.28,367.77 C 389.66,367.20 391.03,366.64 392.41,366.08 C 393.79,365.52 395.18,364.96 396.56,364.41 C 397.95,363.87 399.33,363.33 400.72,362.79 C 402.11,362.26 403.50,361.73 404.89,361.21 C 406.29,360.68 407.68,360.17 409.08,359.67 C 410.47,359.16 411.88,358.66 413.28,358.16 C 414.68,357.67 416.79,356.95 417.49,356.71 Q 417.44,361.25 412.55,367.70 L 439.10,345.25 L 403.33,344.46 L 414.71,349.21 C 414.01,349.49 411.90,350.35 410.50,350.93 C 409.10,351.51 407.70,352.10 406.31,352.70 C 404.92,353.30 403.53,353.91 402.15,354.53 C 400.76,355.14 399.39,355.77 398.01,356.40 C 396.64,357.04 395.27,357.69 393.90,358.34 C 392.54,359.00 391.18,359.66 389.82,360.33 C 388.47,361.01 387.12,361.69 385.77,362.38 C 384.43,363.08 383.09,363.78 381.76,364.50 C 380.43,365.21 379.10,365.94 377.78,366.68 C 376.46,367.42 375.15,368.17 373.85,368.95 C 372.55,369.72 371.23,370.46 369.99,371.33 C 368.74,372.20 366.99,373.71 366.39,374.18 Z" class="arrow-interior" /></g>
      <g transform="rotate(135 551.5 718.7)"><path d="M 367.42,376.12 C 368.15,375.90 370.36,375.28 371.78,374.76 C 373.20,374.25 374.54,373.61 375.92,373.02 C 377.29,372.44 378.66,371.84 380.04,371.26 C 381.41,370.67 382.78,370.08 384.15,369.50 C 385.53,368.92 386.90,368.34 388.28,367.77 C 389.66,367.20 391.03,366.64 392.41,366.08 C 393.79,365.52 395.18,364.96 396.56,364.41 C 397.95,363.87 399.33,363.33 400.72,362.79 C 402.11,362.26 403.50,361.73 404.89,361.21 C 406.29,360.68 407.68,360.17 409.08,359.67 C 410.47,359.16 411.88,358.66 413.28,358.16 C 414.68,357.67 416.79,356.95 417.49,356.71 Q 417.44,361.25 412.55,367.70 L 439.10,345.25 L 403.33,344.46 L 414.71,349.21 C 414.01,349.49 411.90,350.35 410.50,350.93 C 409.10,351.51 407.70,352.10 406.31,352.70 C 404.92,353.30 403.53,353.91 402.15,354.53 C 400.76,355.14 399.39,355.77 398.01,356.40 C 396.64,357.04 395.27,357.69 393.90,358.34 C 392.54,359.00 391.18,359.66 389.82,360.33 C 388.47,361.01 387.12,361.69 385.77,362.38 C 384.43,363.08 383.09,363.78 381.76,364.50 C 380.43,365.21 379.10,365.94 377.78,366.68 C 376.46,367.42 375.15,368.17 373.85,368.95 C 372.55,369.72 371.23,370.46 369.99,371.33 C 368.74,372.20 366.99,373.71 366.39,374.18 Z" class="arrow-border" /><path d="M 367.42,376.12 C 368.15,375.90 370.36,375.28 371.78,374.76 C 373.20,374.25 374.54,373.61 375.92,373.02 C 377.29,372.44 378.66,371.84 380.04,371.26 C 381.41,370.67 382.78,370.08 384.15,369.50 C 385.53,368.92 386.90,368.34 388.28,367.77 C 389.66,367.20 391.03,366.64 392.41,366.08 C 393.79,365.52 395.18,364.96 396.56,364.41 C 397.95,363.87 399.33,363.33 400.72,362.79 C 402.11,362.26 403.50,361.73 404.89,361.21 C 406.29,360.68 407.68,360.17 409.08,359.67 C 410.47,359.16 411.88,358.66 413.28,358.16 C 414.68,357.67 416.79,356.95 417.49,356.71 Q 417.44,361.25 412.55,367.70 L 439.10,345.25 L 403.33,344.46 L 414.71,349.21 C 414.01,349.49 411.90,350.35 410.50,350.93 C 409.10,351.51 407.70,352.10 406.31,352.70 C 404.92,353.30 403.53,353.91 402.15,354.53 C 400.76,355.14 399.39,355.77 398.01,356.40 C 396.64,357.04 395.27,357.69 393.90,358.34 C 392.54,359.00 391.18,359.66 389.82,360.33 C 388.47,361.01 387.12,361.69 385.77,362.38 C 384.43,363.08 383.09,363.78 381.76,364.50 C 380.43,365.21 379.10,365.94 377.78,366.68 C 376.46,367.42 375.15,368.17 373.85,368.95 C 372.55,369.72 371.23,370.46 369.99,371.33 C 368.74,372.20 366.99,373.71 366.39,374.18 Z" class="arrow-interior" /></g>
      <g transform="rotate(180 551.5 718.7)"><path d="M 367.42,376.12 C 368.15,375.90 370.36,375.28 371.78,374.76 C 373.20,374.25 374.54,373.61 375.92,373.02 C 377.29,372.44 378.66,371.84 380.04,371.26 C 381.41,370.67 382.78,370.08 384.15,369.50 C 385.53,368.92 386.90,368.34 388.28,367.77 C 389.66,367.20 391.03,366.64 392.41,366.08 C 393.79,365.52 395.18,364.96 396.56,364.41 C 397.95,363.87 399.33,363.33 400.72,362.79 C 402.11,362.26 403.50,361.73 404.89,361.21 C 406.29,360.68 407.68,360.17 409.08,359.67 C 410.47,359.16 411.88,358.66 413.28,358.16 C 414.68,357.67 416.79,356.95 417.49,356.71 Q 417.44,361.25 412.55,367.70 L 439.10,345.25 L 403.33,344.46 L 414.71,349.21 C 414.01,349.49 411.90,350.35 410.50,350.93 C 409.10,351.51 407.70,352.10 406.31,352.70 C 404.92,353.30 403.53,353.91 402.15,354.53 C 400.76,355.14 399.39,355.77 398.01,356.40 C 396.64,357.04 395.27,357.69 393.90,358.34 C 392.54,359.00 391.18,359.66 389.82,360.33 C 388.47,361.01 387.12,361.69 385.77,362.38 C 384.43,363.08 383.09,363.78 381.76,364.50 C 380.43,365.21 379.10,365.94 377.78,366.68 C 376.46,367.42 375.15,368.17 373.85,368.95 C 372.55,369.72 371.23,370.46 369.99,371.33 C 368.74,372.20 366.99,373.71 366.39,374.18 Z" class="arrow-border" /><path d="M 367.42,376.12 C 368.15,375.90 370.36,375.28 371.78,374.76 C 373.20,374.25 374.54,373.61 375.92,373.02 C 377.29,372.44 378.66,371.84 380.04,371.26 C 381.41,370.67 382.78,370.08 384.15,369.50 C 385.53,368.92 386.90,368.34 388.28,367.77 C 389.66,367.20 391.03,366.64 392.41,366.08 C 393.79,365.52 395.18,364.96 396.56,364.41 C 397.95,363.87 399.33,363.33 400.72,362.79 C 402.11,362.26 403.50,361.73 404.89,361.21 C 406.29,360.68 407.68,360.17 409.08,359.67 C 410.47,359.16 411.88,358.66 413.28,358.16 C 414.68,357.67 416.79,356.95 417.49,356.71 Q 417.44,361.25 412.55,367.70 L 439.10,345.25 L 403.33,344.46 L 414.71,349.21 C 414.01,349.49 411.90,350.35 410.50,350.93 C 409.10,351.51 407.70,352.10 406.31,352.70 C 404.92,353.30 403.53,353.91 402.15,354.53 C 400.76,355.14 399.39,355.77 398.01,356.40 C 396.64,357.04 395.27,357.69 393.90,358.34 C 392.54,359.00 391.18,359.66 389.82,360.33 C 388.47,361.01 387.12,361.69 385.77,362.38 C 384.43,363.08 383.09,363.78 381.76,364.50 C 380.43,365.21 379.10,365.94 377.78,366.68 C 376.46,367.42 375.15,368.17 373.85,368.95 C 372.55,369.72 371.23,370.46 369.99,371.33 C 368.74,372.20 366.99,373.71 366.39,374.18 Z" class="arrow-interior" /></g>
      <g transform="rotate(225 551.5 718.7)"><path d="M 367.42,376.12 C 368.15,375.90 370.36,375.28 371.78,374.76 C 373.20,374.25 374.54,373.61 375.92,373.02 C 377.29,372.44 378.66,371.84 380.04,371.26 C 381.41,370.67 382.78,370.08 384.15,369.50 C 385.53,368.92 386.90,368.34 388.28,367.77 C 389.66,367.20 391.03,366.64 392.41,366.08 C 393.79,365.52 395.18,364.96 396.56,364.41 C 397.95,363.87 399.33,363.33 400.72,362.79 C 402.11,362.26 403.50,361.73 404.89,361.21 C 406.29,360.68 407.68,360.17 409.08,359.67 C 410.47,359.16 411.88,358.66 413.28,358.16 C 414.68,357.67 416.79,356.95 417.49,356.71 Q 417.44,361.25 412.55,367.70 L 439.10,345.25 L 403.33,344.46 L 414.71,349.21 C 414.01,349.49 411.90,350.35 410.50,350.93 C 409.10,351.51 407.70,352.10 406.31,352.70 C 404.92,353.30 403.53,353.91 402.15,354.53 C 400.76,355.14 399.39,355.77 398.01,356.40 C 396.64,357.04 395.27,357.69 393.90,358.34 C 392.54,359.00 391.18,359.66 389.82,360.33 C 388.47,361.01 387.12,361.69 385.77,362.38 C 384.43,363.08 383.09,363.78 381.76,364.50 C 380.43,365.21 379.10,365.94 377.78,366.68 C 376.46,367.42 375.15,368.17 373.85,368.95 C 372.55,369.72 371.23,370.46 369.99,371.33 C 368.74,372.20 366.99,373.71 366.39,374.18 Z" class="arrow-border" /><path d="M 367.42,376.12 C 368.15,375.90 370.36,375.28 371.78,374.76 C 373.20,374.25 374.54,373.61 375.92,373.02 C 377.29,372.44 378.66,371.84 380.04,371.26 C 381.41,370.67 382.78,370.08 384.15,369.50 C 385.53,368.92 386.90,368.34 388.28,367.77 C 389.66,367.20 391.03,366.64 392.41,366.08 C 393.79,365.52 395.18,364.96 396.56,364.41 C 397.95,363.87 399.33,363.33 400.72,362.79 C 402.11,362.26 403.50,361.73 404.89,361.21 C 406.29,360.68 407.68,360.17 409.08,359.67 C 410.47,359.16 411.88,358.66 413.28,358.16 C 414.68,357.67 416.79,356.95 417.49,356.71 Q 417.44,361.25 412.55,367.70 L 439.10,345.25 L 403.33,344.46 L 414.71,349.21 C 414.01,349.49 411.90,350.35 410.50,350.93 C 409.10,351.51 407.70,352.10 406.31,352.70 C 404.92,353.30 403.53,353.91 402.15,354.53 C 400.76,355.14 399.39,355.77 398.01,356.40 C 396.64,357.04 395.27,357.69 393.90,358.34 C 392.54,359.00 391.18,359.66 389.82,360.33 C 388.47,361.01 387.12,361.69 385.77,362.38 C 384.43,363.08 383.09,363.78 381.76,364.50 C 380.43,365.21 379.10,365.94 377.78,366.68 C 376.46,367.42 375.15,368.17 373.85,368.95 C 372.55,369.72 371.23,370.46 369.99,371.33 C 368.74,372.20 366.99,373.71 366.39,374.18 Z" class="arrow-interior" /></g>
      <g transform="rotate(270 551.5 718.7)"><path d="M 367.42,376.12 C 368.15,375.90 370.36,375.28 371.78,374.76 C 373.20,374.25 374.54,373.61 375.92,373.02 C 377.29,372.44 378.66,371.84 380.04,371.26 C 381.41,370.67 382.78,370.08 384.15,369.50 C 385.53,368.92 386.90,368.34 388.28,367.77 C 389.66,367.20 391.03,366.64 392.41,366.08 C 393.79,365.52 395.18,364.96 396.56,364.41 C 397.95,363.87 399.33,363.33 400.72,362.79 C 402.11,362.26 403.50,361.73 404.89,361.21 C 406.29,360.68 407.68,360.17 409.08,359.67 C 410.47,359.16 411.88,358.66 413.28,358.16 C 414.68,357.67 416.79,356.95 417.49,356.71 Q 417.44,361.25 412.55,367.70 L 439.10,345.25 L 403.33,344.46 L 414.71,349.21 C 414.01,349.49 411.90,350.35 410.50,350.93 C 409.10,351.51 407.70,352.10 406.31,352.70 C 404.92,353.30 403.53,353.91 402.15,354.53 C 400.76,355.14 399.39,355.77 398.01,356.40 C 396.64,357.04 395.27,357.69 393.90,358.34 C 392.54,359.00 391.18,359.66 389.82,360.33 C 388.47,361.01 387.12,361.69 385.77,362.38 C 384.43,363.08 383.09,363.78 381.76,364.50 C 380.43,365.21 379.10,365.94 377.78,366.68 C 376.46,367.42 375.15,368.17 373.85,368.95 C 372.55,369.72 371.23,370.46 369.99,371.33 C 368.74,372.20 366.99,373.71 366.39,374.18 Z" class="arrow-border" /><path d="M 367.42,376.12 C 368.15,375.90 370.36,375.28 371.78,374.76 C 373.20,374.25 374.54,373.61 375.92,373.02 C 377.29,372.44 378.66,371.84 380.04,371.26 C 381.41,370.67 382.78,370.08 384.15,369.50 C 385.53,368.92 386.90,368.34 388.28,367.77 C 389.66,367.20 391.03,366.64 392.41,366.08 C 393.79,365.52 395.18,364.96 396.56,364.41 C 397.95,363.87 399.33,363.33 400.72,362.79 C 402.11,362.26 403.50,361.73 404.89,361.21 C 406.29,360.68 407.68,360.17 409.08,359.67 C 410.47,359.16 411.88,358.66 413.28,358.16 C 414.68,357.67 416.79,356.95 417.49,356.71 Q 417.44,361.25 412.55,367.70 L 439.10,345.25 L 403.33,344.46 L 414.71,349.21 C 414.01,349.49 411.90,350.35 410.50,350.93 C 409.10,351.51 407.70,352.10 406.31,352.70 C 404.92,353.30 403.53,353.91 402.15,354.53 C 400.76,355.14 399.39,355.77 398.01,356.40 C 396.64,357.04 395.27,357.69 393.90,358.34 C 392.54,359.00 391.18,359.66 389.82,360.33 C 388.47,361.01 387.12,361.69 385.77,362.38 C 384.43,363.08 383.09,363.78 381.76,364.50 C 380.43,365.21 379.10,365.94 377.78,366.68 C 376.46,367.42 375.15,368.17 373.85,368.95 C 372.55,369.72 371.23,370.46 369.99,371.33 C 368.74,372.20 366.99,373.71 366.39,374.18 Z" class="arrow-interior" /></g>
      <g transform="rotate(315 551.5 718.7)"><path d="M 367.42,376.12 C 368.15,375.90 370.36,375.28 371.78,374.76 C 373.20,374.25 374.54,373.61 375.92,373.02 C 377.29,372.44 378.66,371.84 380.04,371.26 C 381.41,370.67 382.78,370.08 384.15,369.50 C 385.53,368.92 386.90,368.34 388.28,367.77 C 389.66,367.20 391.03,366.64 392.41,366.08 C 393.79,365.52 395.18,364.96 396.56,364.41 C 397.95,363.87 399.33,363.33 400.72,362.79 C 402.11,362.26 403.50,361.73 404.89,361.21 C 406.29,360.68 407.68,360.17 409.08,359.67 C 410.47,359.16 411.88,358.66 413.28,358.16 C 414.68,357.67 416.79,356.95 417.49,356.71 Q 417.44,361.25 412.55,367.70 L 439.10,345.25 L 403.33,344.46 L 414.71,349.21 C 414.01,349.49 411.90,350.35 410.50,350.93 C 409.10,351.51 407.70,352.10 406.31,352.70 C 404.92,353.30 403.53,353.91 402.15,354.53 C 400.76,355.14 399.39,355.77 398.01,356.40 C 396.64,357.04 395.27,357.69 393.90,358.34 C 392.54,359.00 391.18,359.66 389.82,360.33 C 388.47,361.01 387.12,361.69 385.77,362.38 C 384.43,363.08 383.09,363.78 381.76,364.50 C 380.43,365.21 379.10,365.94 377.78,366.68 C 376.46,367.42 375.15,368.17 373.85,368.95 C 372.55,369.72 371.23,370.46 369.99,371.33 C 368.74,372.20 366.99,373.71 366.39,374.18 Z" class="arrow-border" /><path d="M 367.42,376.12 C 368.15,375.90 370.36,375.28 371.78,374.76 C 373.20,374.25 374.54,373.61 375.92,373.02 C 377.29,372.44 378.66,371.84 380.04,371.26 C 381.41,370.67 382.78,370.08 384.15,369.50 C 385.53,368.92 386.90,368.34 388.28,367.77 C 389.66,367.20 391.03,366.64 392.41,366.08 C 393.79,365.52 395.18,364.96 396.56,364.41 C 397.95,363.87 399.33,363.33 400.72,362.79 C 402.11,362.26 403.50,361.73 404.89,361.21 C 406.29,360.68 407.68,360.17 409.08,359.67 C 410.47,359.16 411.88,358.66 413.28,358.16 C 414.68,357.67 416.79,356.95 417.49,356.71 Q 417.44,361.25 412.55,367.70 L 439.10,345.25 L 403.33,344.46 L 414.71,349.21 C 414.01,349.49 411.90,350.35 410.50,350.93 C 409.10,351.51 407.70,352.10 406.31,352.70 C 404.92,353.30 403.53,353.91 402.15,354.53 C 400.76,355.14 399.39,355.77 398.01,356.40 C 396.64,357.04 395.27,357.69 393.90,358.34 C 392.54,359.00 391.18,359.66 389.82,360.33 C 388.47,361.01 387.12,361.69 385.77,362.38 C 384.43,363.08 383.09,363.78 381.76,364.50 C 380.43,365.21 379.10,365.94 377.78,366.68 C 376.46,367.42 375.15,368.17 373.85,368.95 C 372.55,369.72 371.23,370.46 369.99,371.33 C 368.74,372.20 366.99,373.71 366.39,374.18 Z" class="arrow-interior" /></g>
    </g>

    <g aria-label="Middle directional arrows">
      <g transform="translate(551.0 556.6) rotate(-90)"><path d="M -44.00,1.10 C -43.16,1.24 -40.63,1.74 -38.94,1.94 C -37.25,2.13 -35.57,2.18 -33.88,2.28 C -32.19,2.39 -30.51,2.47 -28.82,2.55 C -27.13,2.63 -25.45,2.70 -23.76,2.77 C -22.07,2.84 -20.39,2.91 -18.70,2.97 C -17.01,3.03 -15.33,3.09 -13.64,3.15 C -11.95,3.21 -10.27,3.26 -8.58,3.31 C -6.89,3.37 -5.21,3.42 -3.52,3.47 C -1.83,3.52 -0.15,3.56 1.54,3.61 C 3.23,3.66 4.91,3.70 6.60,3.75 C 8.29,3.79 9.97,3.83 11.66,3.88 C 13.35,3.92 15.88,3.98 16.72,4.00 Q 14.41,8.25 6.90,12.50 L 44.00,0.00 L 6.90,-12.50 L 16.72,-4.00 C 15.88,-3.98 13.35,-3.92 11.66,-3.88 C 9.97,-3.83 8.29,-3.79 6.60,-3.75 C 4.91,-3.70 3.23,-3.66 1.54,-3.61 C -0.15,-3.56 -1.83,-3.52 -3.52,-3.47 C -5.21,-3.42 -6.89,-3.37 -8.58,-3.31 C -10.27,-3.26 -11.95,-3.21 -13.64,-3.15 C -15.33,-3.09 -17.01,-3.03 -18.70,-2.97 C -20.39,-2.91 -22.07,-2.84 -23.76,-2.77 C -25.45,-2.70 -27.13,-2.63 -28.82,-2.55 C -30.51,-2.47 -32.19,-2.39 -33.88,-2.28 C -35.57,-2.18 -37.25,-2.13 -38.94,-1.94 C -40.63,-1.74 -43.16,-1.24 -44.00,-1.10 Z" class="arrow-border" /><path d="M -44.00,1.10 C -43.16,1.24 -40.63,1.74 -38.94,1.94 C -37.25,2.13 -35.57,2.18 -33.88,2.28 C -32.19,2.39 -30.51,2.47 -28.82,2.55 C -27.13,2.63 -25.45,2.70 -23.76,2.77 C -22.07,2.84 -20.39,2.91 -18.70,2.97 C -17.01,3.03 -15.33,3.09 -13.64,3.15 C -11.95,3.21 -10.27,3.26 -8.58,3.31 C -6.89,3.37 -5.21,3.42 -3.52,3.47 C -1.83,3.52 -0.15,3.56 1.54,3.61 C 3.23,3.66 4.91,3.70 6.60,3.75 C 8.29,3.79 9.97,3.83 11.66,3.88 C 13.35,3.92 15.88,3.98 16.72,4.00 Q 14.41,8.25 6.90,12.50 L 44.00,0.00 L 6.90,-12.50 L 16.72,-4.00 C 15.88,-3.98 13.35,-3.92 11.66,-3.88 C 9.97,-3.83 8.29,-3.79 6.60,-3.75 C 4.91,-3.70 3.23,-3.66 1.54,-3.61 C -0.15,-3.56 -1.83,-3.52 -3.52,-3.47 C -5.21,-3.42 -6.89,-3.37 -8.58,-3.31 C -10.27,-3.26 -11.95,-3.21 -13.64,-3.15 C -15.33,-3.09 -17.01,-3.03 -18.70,-2.97 C -20.39,-2.91 -22.07,-2.84 -23.76,-2.77 C -25.45,-2.70 -27.13,-2.63 -28.82,-2.55 C -30.51,-2.47 -32.19,-2.39 -33.88,-2.28 C -35.57,-2.18 -37.25,-2.13 -38.94,-1.94 C -40.63,-1.74 -43.16,-1.24 -44.00,-1.10 Z" class="arrow-interior" /></g>
      <g transform="translate(709.6 718.8) rotate(180)"><path d="M -44.00,1.10 C -43.16,1.24 -40.63,1.74 -38.94,1.94 C -37.25,2.13 -35.57,2.18 -33.88,2.28 C -32.19,2.39 -30.51,2.47 -28.82,2.55 C -27.13,2.63 -25.45,2.70 -23.76,2.77 C -22.07,2.84 -20.39,2.91 -18.70,2.97 C -17.01,3.03 -15.33,3.09 -13.64,3.15 C -11.95,3.21 -10.27,3.26 -8.58,3.31 C -6.89,3.37 -5.21,3.42 -3.52,3.47 C -1.83,3.52 -0.15,3.56 1.54,3.61 C 3.23,3.66 4.91,3.70 6.60,3.75 C 8.29,3.79 9.97,3.83 11.66,3.88 C 13.35,3.92 15.88,3.98 16.72,4.00 Q 14.41,8.25 6.90,12.50 L 44.00,0.00 L 6.90,-12.50 L 16.72,-4.00 C 15.88,-3.98 13.35,-3.92 11.66,-3.88 C 9.97,-3.83 8.29,-3.79 6.60,-3.75 C 4.91,-3.70 3.23,-3.66 1.54,-3.61 C -0.15,-3.56 -1.83,-3.52 -3.52,-3.47 C -5.21,-3.42 -6.89,-3.37 -8.58,-3.31 C -10.27,-3.26 -11.95,-3.21 -13.64,-3.15 C -15.33,-3.09 -17.01,-3.03 -18.70,-2.97 C -20.39,-2.91 -22.07,-2.84 -23.76,-2.77 C -25.45,-2.70 -27.13,-2.63 -28.82,-2.55 C -30.51,-2.47 -32.19,-2.39 -33.88,-2.28 C -35.57,-2.18 -37.25,-2.13 -38.94,-1.94 C -40.63,-1.74 -43.16,-1.24 -44.00,-1.10 Z" class="arrow-border" /><path d="M -44.00,1.10 C -43.16,1.24 -40.63,1.74 -38.94,1.94 C -37.25,2.13 -35.57,2.18 -33.88,2.28 C -32.19,2.39 -30.51,2.47 -28.82,2.55 C -27.13,2.63 -25.45,2.70 -23.76,2.77 C -22.07,2.84 -20.39,2.91 -18.70,2.97 C -17.01,3.03 -15.33,3.09 -13.64,3.15 C -11.95,3.21 -10.27,3.26 -8.58,3.31 C -6.89,3.37 -5.21,3.42 -3.52,3.47 C -1.83,3.52 -0.15,3.56 1.54,3.61 C 3.23,3.66 4.91,3.70 6.60,3.75 C 8.29,3.79 9.97,3.83 11.66,3.88 C 13.35,3.92 15.88,3.98 16.72,4.00 Q 14.41,8.25 6.90,12.50 L 44.00,0.00 L 6.90,-12.50 L 16.72,-4.00 C 15.88,-3.98 13.35,-3.92 11.66,-3.88 C 9.97,-3.83 8.29,-3.79 6.60,-3.75 C 4.91,-3.70 3.23,-3.66 1.54,-3.61 C -0.15,-3.56 -1.83,-3.52 -3.52,-3.47 C -5.21,-3.42 -6.89,-3.37 -8.58,-3.31 C -10.27,-3.26 -11.95,-3.21 -13.64,-3.15 C -15.33,-3.09 -17.01,-3.03 -18.70,-2.97 C -20.39,-2.91 -22.07,-2.84 -23.76,-2.77 C -25.45,-2.70 -27.13,-2.63 -28.82,-2.55 C -30.51,-2.47 -32.19,-2.39 -33.88,-2.28 C -35.57,-2.18 -37.25,-2.13 -38.94,-1.94 C -40.63,-1.74 -43.16,-1.24 -44.00,-1.10 Z" class="arrow-interior" /></g>
      <g transform="translate(551.0 881.2) rotate(90)"><path d="M -44.00,1.10 C -43.16,1.24 -40.63,1.74 -38.94,1.94 C -37.25,2.13 -35.57,2.18 -33.88,2.28 C -32.19,2.39 -30.51,2.47 -28.82,2.55 C -27.13,2.63 -25.45,2.70 -23.76,2.77 C -22.07,2.84 -20.39,2.91 -18.70,2.97 C -17.01,3.03 -15.33,3.09 -13.64,3.15 C -11.95,3.21 -10.27,3.26 -8.58,3.31 C -6.89,3.37 -5.21,3.42 -3.52,3.47 C -1.83,3.52 -0.15,3.56 1.54,3.61 C 3.23,3.66 4.91,3.70 6.60,3.75 C 8.29,3.79 9.97,3.83 11.66,3.88 C 13.35,3.92 15.88,3.98 16.72,4.00 Q 14.41,8.25 6.90,12.50 L 44.00,0.00 L 6.90,-12.50 L 16.72,-4.00 C 15.88,-3.98 13.35,-3.92 11.66,-3.88 C 9.97,-3.83 8.29,-3.79 6.60,-3.75 C 4.91,-3.70 3.23,-3.66 1.54,-3.61 C -0.15,-3.56 -1.83,-3.52 -3.52,-3.47 C -5.21,-3.42 -6.89,-3.37 -8.58,-3.31 C -10.27,-3.26 -11.95,-3.21 -13.64,-3.15 C -15.33,-3.09 -17.01,-3.03 -18.70,-2.97 C -20.39,-2.91 -22.07,-2.84 -23.76,-2.77 C -25.45,-2.70 -27.13,-2.63 -28.82,-2.55 C -30.51,-2.47 -32.19,-2.39 -33.88,-2.28 C -35.57,-2.18 -37.25,-2.13 -38.94,-1.94 C -40.63,-1.74 -43.16,-1.24 -44.00,-1.10 Z" class="arrow-border" /><path d="M -44.00,1.10 C -43.16,1.24 -40.63,1.74 -38.94,1.94 C -37.25,2.13 -35.57,2.18 -33.88,2.28 C -32.19,2.39 -30.51,2.47 -28.82,2.55 C -27.13,2.63 -25.45,2.70 -23.76,2.77 C -22.07,2.84 -20.39,2.91 -18.70,2.97 C -17.01,3.03 -15.33,3.09 -13.64,3.15 C -11.95,3.21 -10.27,3.26 -8.58,3.31 C -6.89,3.37 -5.21,3.42 -3.52,3.47 C -1.83,3.52 -0.15,3.56 1.54,3.61 C 3.23,3.66 4.91,3.70 6.60,3.75 C 8.29,3.79 9.97,3.83 11.66,3.88 C 13.35,3.92 15.88,3.98 16.72,4.00 Q 14.41,8.25 6.90,12.50 L 44.00,0.00 L 6.90,-12.50 L 16.72,-4.00 C 15.88,-3.98 13.35,-3.92 11.66,-3.88 C 9.97,-3.83 8.29,-3.79 6.60,-3.75 C 4.91,-3.70 3.23,-3.66 1.54,-3.61 C -0.15,-3.56 -1.83,-3.52 -3.52,-3.47 C -5.21,-3.42 -6.89,-3.37 -8.58,-3.31 C -10.27,-3.26 -11.95,-3.21 -13.64,-3.15 C -15.33,-3.09 -17.01,-3.03 -18.70,-2.97 C -20.39,-2.91 -22.07,-2.84 -23.76,-2.77 C -25.45,-2.70 -27.13,-2.63 -28.82,-2.55 C -30.51,-2.47 -32.19,-2.39 -33.88,-2.28 C -35.57,-2.18 -37.25,-2.13 -38.94,-1.94 C -40.63,-1.74 -43.16,-1.24 -44.00,-1.10 Z" class="arrow-interior" /></g>
      <g transform="translate(393.2 718.8)"><path d="M -44.00,1.10 C -43.16,1.24 -40.63,1.74 -38.94,1.94 C -37.25,2.13 -35.57,2.18 -33.88,2.28 C -32.19,2.39 -30.51,2.47 -28.82,2.55 C -27.13,2.63 -25.45,2.70 -23.76,2.77 C -22.07,2.84 -20.39,2.91 -18.70,2.97 C -17.01,3.03 -15.33,3.09 -13.64,3.15 C -11.95,3.21 -10.27,3.26 -8.58,3.31 C -6.89,3.37 -5.21,3.42 -3.52,3.47 C -1.83,3.52 -0.15,3.56 1.54,3.61 C 3.23,3.66 4.91,3.70 6.60,3.75 C 8.29,3.79 9.97,3.83 11.66,3.88 C 13.35,3.92 15.88,3.98 16.72,4.00 Q 14.41,8.25 6.90,12.50 L 44.00,0.00 L 6.90,-12.50 L 16.72,-4.00 C 15.88,-3.98 13.35,-3.92 11.66,-3.88 C 9.97,-3.83 8.29,-3.79 6.60,-3.75 C 4.91,-3.70 3.23,-3.66 1.54,-3.61 C -0.15,-3.56 -1.83,-3.52 -3.52,-3.47 C -5.21,-3.42 -6.89,-3.37 -8.58,-3.31 C -10.27,-3.26 -11.95,-3.21 -13.64,-3.15 C -15.33,-3.09 -17.01,-3.03 -18.70,-2.97 C -20.39,-2.91 -22.07,-2.84 -23.76,-2.77 C -25.45,-2.70 -27.13,-2.63 -28.82,-2.55 C -30.51,-2.47 -32.19,-2.39 -33.88,-2.28 C -35.57,-2.18 -37.25,-2.13 -38.94,-1.94 C -40.63,-1.74 -43.16,-1.24 -44.00,-1.10 Z" class="arrow-border" /><path d="M -44.00,1.10 C -43.16,1.24 -40.63,1.74 -38.94,1.94 C -37.25,2.13 -35.57,2.18 -33.88,2.28 C -32.19,2.39 -30.51,2.47 -28.82,2.55 C -27.13,2.63 -25.45,2.70 -23.76,2.77 C -22.07,2.84 -20.39,2.91 -18.70,2.97 C -17.01,3.03 -15.33,3.09 -13.64,3.15 C -11.95,3.21 -10.27,3.26 -8.58,3.31 C -6.89,3.37 -5.21,3.42 -3.52,3.47 C -1.83,3.52 -0.15,3.56 1.54,3.61 C 3.23,3.66 4.91,3.70 6.60,3.75 C 8.29,3.79 9.97,3.83 11.66,3.88 C 13.35,3.92 15.88,3.98 16.72,4.00 Q 14.41,8.25 6.90,12.50 L 44.00,0.00 L 6.90,-12.50 L 16.72,-4.00 C 15.88,-3.98 13.35,-3.92 11.66,-3.88 C 9.97,-3.83 8.29,-3.79 6.60,-3.75 C 4.91,-3.70 3.23,-3.66 1.54,-3.61 C -0.15,-3.56 -1.83,-3.52 -3.52,-3.47 C -5.21,-3.42 -6.89,-3.37 -8.58,-3.31 C -10.27,-3.26 -11.95,-3.21 -13.64,-3.15 C -15.33,-3.09 -17.01,-3.03 -18.70,-2.97 C -20.39,-2.91 -22.07,-2.84 -23.76,-2.77 C -25.45,-2.70 -27.13,-2.63 -28.82,-2.55 C -30.51,-2.47 -32.19,-2.39 -33.88,-2.28 C -35.57,-2.18 -37.25,-2.13 -38.94,-1.94 C -40.63,-1.74 -43.16,-1.24 -44.00,-1.10 Z" class="arrow-interior" /></g>
    </g>

    <g aria-label="Board spaces">
      <path d="M 449.5,617.3 H 652.5 V 718.8 A 101.5,101.5 0 0 1 449.5,718.8 V 617.3 Z" class="board-circle" />
      <text x="551.0" y="668.1" class="circle-label">City</text>
      <path d="M 449.8,293.0 H 652.8 V 394.5 A 101.5,101.5 0 0 1 449.8,394.5 V 293.0 Z" class="board-circle" />
      <text x="551.3" y="343.8" class="circle-label">Produce</text>
      <g class="produce-cube-tally" aria-label="cube counts"><line x1="507.3" y1="413.5" x2="595.3" y2="413.5" stroke="#3A2F1E" stroke-opacity="0.55" stroke-width="1.6" stroke-linecap="round"/><rect x="511.8" y="398.0" width="13.0" height="13.0" fill="#FFFFFF" stroke="#000000" stroke-width="1.8"/><rect x="511.8" y="380.0" width="13.0" height="13.0" fill="#FFFFFF" stroke="#000000" stroke-width="1.8"/><rect x="533.8" y="398.0" width="13.0" height="13.0" fill="#C94C4C" stroke="#000000" stroke-width="1.5"/><rect x="555.8" y="398.0" width="13.0" height="13.0" fill="#E3C64A" stroke="#000000" stroke-width="1.8"/><rect x="555.8" y="380.0" width="13.0" height="13.0" fill="#E3C64A" stroke="#000000" stroke-width="1.8"/><rect x="577.8" y="398.0" width="13.0" height="13.0" fill="#3B6EA5" stroke="#000000" stroke-width="1.5"/></g>
      <g class="produce-joined-shape">
        <g clip-path="url(#produce-capsule-clip)"><circle cx="529.3" cy="452.5" r="24.0" fill="#EFE4C6" /><circle cx="573.3" cy="452.5" r="24.0" fill="#8E63D7" stroke="#000000" stroke-width="2" /></g><path d="M 529.3,428.5 H 573.3 A 24,24 0 0 1 573.3,476.5 H 529.3 A 24,24 0 0 1 529.3,428.5 Z" fill="none" stroke="#000000" stroke-width="2" stroke-linecap="round" stroke-linejoin="round" /><g class="coin-icon" transform="translate(529.3 452.8) scale(1.22)" aria-label="Silver coin">
          <circle cx="0" cy="0" r="9.6" fill="none" stroke="#3A2F1E" stroke-width="1.45" />
          <circle cx="0" cy="0" r="6.55" fill="none" stroke="#3A2F1E" stroke-width="0.98" />
          <line x1="2.0" y1="-4.8" x2="6.2" y2="-4.8" stroke="#3A2F1E" stroke-width="1.08" stroke-linecap="round" />
          <line x1="4.1" y1="-6.9" x2="4.1" y2="-2.7" stroke="#3A2F1E" stroke-width="1.08" stroke-linecap="round" />
        </g></g>
      <path d="M 674.0,387.2 H 877.0 V 488.7 A 101.5,101.5 0 0 1 674.0,488.7 V 387.2 Z" class="board-circle" />
      <text x="775.5" y="437.9" class="circle-label">Allocation</text>
      <g class="allocation-cube-tally" aria-label="cube counts"><line x1="731.5" y1="507.7" x2="819.5" y2="507.7" stroke="#3A2F1E" stroke-opacity="0.55" stroke-width="1.6" stroke-linecap="round"/><rect x="736.0" y="492.2" width="13.0" height="13.0" fill="#FFFFFF" stroke="#000000" stroke-width="1.8"/><rect x="758.0" y="492.2" width="13.0" height="13.0" fill="#C94C4C" stroke="#000000" stroke-width="1.5"/><rect x="780.0" y="492.2" width="13.0" height="13.0" fill="#E3C64A" stroke="#000000" stroke-width="1.8"/><rect x="802.0" y="492.2" width="13.0" height="13.0" fill="#3B6EA5" stroke="#000000" stroke-width="1.5"/></g>
      <g class="allocation-wheat-shape">
        <path d="M 753.5,522.7 H 797.5 A 24,24 0 0 1 797.5,570.7 H 753.5 A 24,24 0 0 1 753.5,522.7 Z" fill="#EFE4C6" stroke="#000000" stroke-width="2" stroke-linecap="round" stroke-linejoin="round" /><g class="stone-icon" transform="translate(753.5 555.0) scale(1.15)"><path d="M 0,-17.3 L 8.8,-12.3 L 0,-7.3 L -8.8,-12.3 Z" fill="#3A2F1E" fill-opacity="0.9" stroke="#3A2F1E" stroke-width="1.0" stroke-linejoin="round" /><path d="M 8.8,-12.3 L 8.8,-2.3 L 0,2.7 L 0,-7.3 Z" fill="#3A2F1E" fill-opacity="0.55" stroke="#3A2F1E" stroke-width="1.0" stroke-linejoin="round" /><path d="M -8.8,-12.3 L 0,-7.3 L 0,2.7 L -8.8,-2.3 Z" fill="#3A2F1E" fill-opacity="0.75" stroke="#3A2F1E" stroke-width="1.0" stroke-linejoin="round" /></g></g>
      <path d="M 766.8,617.2 H 969.8 V 718.7 A 101.5,101.5 0 0 1 766.8,718.7 V 617.2 Z" class="board-circle" />
      <text x="868.3" y="668.0" class="circle-label">Clerical</text>
      <g class="clerical-cube-tally" aria-label="cube counts"><line x1="824.3" y1="737.7" x2="912.3" y2="737.7" stroke="#3A2F1E" stroke-opacity="0.55" stroke-width="1.6" stroke-linecap="round"/><rect x="828.8" y="722.2" width="13.0" height="13.0" fill="#FFFFFF" stroke="#000000" stroke-width="1.8"/><rect x="872.8" y="722.2" width="13.0" height="13.0" fill="#E3C64A" stroke="#000000" stroke-width="1.8"/><rect x="894.8" y="722.2" width="13.0" height="13.0" fill="#3B6EA5" stroke="#000000" stroke-width="1.5"/></g>
      <g class="clerical-wheat-shape">
        <path d="M 846.3,752.7 H 890.3 A 24,24 0 0 1 890.3,800.7 H 846.3 A 24,24 0 0 1 846.3,752.7 Z" fill="#EFE4C6" stroke="#000000" stroke-width="2" stroke-linecap="round" stroke-linejoin="round" />
        <g class="wild-resource-icon" transform="translate(846.3 776.7) scale(1.1728)" aria-label="Cornucopia (wild resource)">
  <path d="M -1.29,-9.17 C -1.54,-8.96 -2.29,-8.34 -2.79,-7.92 C -3.29,-7.50 -3.78,-7.09 -4.27,-6.67 C -4.76,-6.25 -5.25,-5.82 -5.74,-5.38 C -6.23,-4.94 -6.72,-4.48 -7.21,-4.01 C -7.70,-3.54 -8.18,-3.06 -8.65,-2.54 C -9.12,-2.02 -9.58,-1.48 -10.01,-0.91 C -10.44,-0.34 -10.86,0.26 -11.23,0.89 C -11.60,1.52 -11.95,2.20 -12.22,2.90 C -12.49,3.60 -12.71,4.34 -12.84,5.09 C -12.97,5.84 -13.04,6.62 -12.98,7.38 C -12.92,8.13 -12.77,8.92 -12.50,9.62 C -12.23,10.32 -11.83,11.02 -11.35,11.56 C -10.87,12.10 -10.25,12.59 -9.63,12.88 C -9.01,13.17 -8.26,13.32 -7.64,13.28 C -7.02,13.24 -6.32,12.99 -5.93,12.65 C -5.54,12.31 -5.38,11.47 -5.27,11.24 C -5.16,11.01 -5.08,11.29 -5.27,11.24 C -5.46,11.20 -6.13,11.11 -6.42,10.97 C -6.71,10.83 -6.87,10.61 -6.99,10.41 C -7.11,10.21 -7.13,9.97 -7.14,9.76 C -7.14,9.55 -7.09,9.35 -7.02,9.16 C -6.95,8.97 -6.85,8.80 -6.73,8.63 C -6.61,8.46 -6.47,8.31 -6.31,8.15 C -6.15,7.99 -5.98,7.84 -5.78,7.69 C -5.58,7.54 -5.36,7.39 -5.11,7.24 C -4.86,7.09 -4.60,6.94 -4.30,6.78 C -4.00,6.62 -3.68,6.47 -3.33,6.31 C -2.98,6.15 -2.60,5.99 -2.19,5.83 C -1.78,5.67 -1.34,5.50 -0.88,5.33 C -0.42,5.16 0.07,4.98 0.58,4.80 C 1.09,4.62 1.63,4.43 2.18,4.23 C 2.73,4.03 3.31,3.83 3.90,3.62 C 4.49,3.41 5.41,3.07 5.71,2.96" fill="none" stroke="#3A2F1E" stroke-width="1.7" stroke-linecap="round" stroke-linejoin="round"/>
  <ellipse cx="2.21" cy="-3.11" rx="7.0" ry="3.15" transform="rotate(-120.0 2.21 -3.11)" fill="none" stroke="#3A2F1E" stroke-width="1.6"/>
  <circle cx="9.48" cy="-7.31" r="2.94" fill="none" stroke="#3A2F1E" stroke-width="1.4"/>
  <circle cx="4.98" cy="-11.18" r="2.10" fill="none" stroke="#3A2F1E" stroke-width="1.4"/>
  <circle cx="10.95" cy="-1.69" r="2.03" fill="none" stroke="#3A2F1E" stroke-width="1.4"/>
</g></g>
      <path d="M 673.9,847.6 H 876.9 V 949.1 A 101.5,101.5 0 0 1 673.9,949.1 V 847.6 Z" class="board-circle" />
      <text x="775.4" y="898.4" class="circle-label">Build Roads</text>
      <g class="build-roads-cube-tally" aria-label="cube counts"><line x1="731.4" y1="968.1" x2="819.4" y2="968.1" stroke="#3A2F1E" stroke-opacity="0.55" stroke-width="1.6" stroke-linecap="round"/><rect x="757.9" y="952.6" width="13.0" height="13.0" fill="#C94C4C" stroke="#000000" stroke-width="1.5"/><rect x="757.9" y="934.6" width="13.0" height="13.0" fill="#C94C4C" stroke="#000000" stroke-width="1.5"/></g>
      <g class="build-roads-wheat-shape">
        <path d="M 753.4,983.1 H 797.4 A 24,24 0 0 1 797.4,1031.1 H 753.4 A 24,24 0 0 1 753.4,983.1 Z" fill="#EFE4C6" stroke="#000000" stroke-width="2" stroke-linecap="round" stroke-linejoin="round" />
        <g class="wheat-icon" transform="translate(753.4 1010.4) scale(1.18)">
          <line x1="0" y1="7.0" x2="-8.2" y2="-10.8" stroke="#3A2F1E" stroke-width="1.35" stroke-linecap="round" />
          <ellipse cx="-6.8" cy="-9.4" rx="1.95" ry="3.25" fill="#3A2F1E" transform="rotate(-22 -6.8 -9.4)" />
          <line x1="0" y1="7.0" x2="-4.6" y2="-13.0" stroke="#3A2F1E" stroke-width="1.35" stroke-linecap="round" />
          <ellipse cx="-3.8" cy="-11.3" rx="1.95" ry="3.25" fill="#3A2F1E" transform="rotate(-10 -3.8 -11.3)" />
          <line x1="0" y1="7.0" x2="0.9" y2="-13.8" stroke="#3A2F1E" stroke-width="1.35" stroke-linecap="round" />
          <ellipse cx="0.6" cy="-12.1" rx="1.95" ry="3.25" fill="#3A2F1E" transform="rotate(2 0.6 -12.1)" />
          <line x1="0" y1="7.0" x2="5.9" y2="-12.3" stroke="#3A2F1E" stroke-width="1.35" stroke-linecap="round" />
          <ellipse cx="4.7" cy="-10.8" rx="1.95" ry="3.25" fill="#3A2F1E" transform="rotate(14 4.7 -10.8)" />
          <line x1="0" y1="7.0" x2="9.6" y2="-9.1" stroke="#3A2F1E" stroke-width="1.35" stroke-linecap="round" />
          <ellipse cx="8.0" cy="-7.6" rx="1.95" ry="3.25" fill="#3A2F1E" transform="rotate(24 8.0 -7.6)" />
          <line x1="-5.2" y1="8.0" x2="5.2" y2="8.0" stroke="#3A2F1E" stroke-width="1.46" />
        </g>
      </g>
      <path d="M 450.0,942.2 H 653.0 V 1043.7 A 101.5,101.5 0 0 1 450.0,1043.7 V 942.2 Z" class="board-circle" />
      <text x="551.5" y="993.0" class="circle-label">Taxation</text>
      <g class="taxation-cube-tally" aria-label="cube counts"><line x1="507.5" y1="1062.7" x2="595.5" y2="1062.7" stroke="#3A2F1E" stroke-opacity="0.55" stroke-width="1.6" stroke-linecap="round"/><rect x="512.0" y="1047.2" width="13.0" height="13.0" fill="#FFFFFF" stroke="#000000" stroke-width="1.8"/><rect x="512.0" y="1029.2" width="13.0" height="13.0" fill="#FFFFFF" stroke="#000000" stroke-width="1.8"/><rect x="534.0" y="1047.2" width="13.0" height="13.0" fill="#C94C4C" stroke="#000000" stroke-width="1.5"/><rect x="534.0" y="1029.2" width="13.0" height="13.0" fill="#C94C4C" stroke="#000000" stroke-width="1.5"/><rect x="556.0" y="1047.2" width="13.0" height="13.0" fill="#E3C64A" stroke="#000000" stroke-width="1.8"/><rect x="578.0" y="1047.2" width="13.0" height="13.0" fill="#3B6EA5" stroke="#000000" stroke-width="1.5"/><rect x="578.0" y="1029.2" width="13.0" height="13.0" fill="#3B6EA5" stroke="#000000" stroke-width="1.5"/></g>
      <path d="M 227.0,847.6 H 430.0 V 949.1 A 101.5,101.5 0 0 1 227.0,949.1 V 847.6 Z" class="board-circle" />
      <text x="328.5" y="898.4" class="circle-label">Ordination</text>
      <g class="ordination-cube-tally" aria-label="cube counts"><line x1="284.5" y1="968.1" x2="372.5" y2="968.1" stroke="#3A2F1E" stroke-opacity="0.55" stroke-width="1.6" stroke-linecap="round"/><rect x="289.0" y="952.6" width="13.0" height="13.0" fill="#FFFFFF" stroke="#000000" stroke-width="1.8"/><rect x="289.0" y="934.6" width="13.0" height="13.0" fill="#FFFFFF" stroke="#000000" stroke-width="1.8"/><rect x="311.0" y="952.6" width="13.0" height="13.0" fill="#C94C4C" stroke="#000000" stroke-width="1.5"/><rect x="311.0" y="934.6" width="13.0" height="13.0" fill="#C94C4C" stroke="#000000" stroke-width="1.5"/><rect x="333.0" y="952.6" width="13.0" height="13.0" fill="#E3C64A" stroke="#000000" stroke-width="1.8"/><rect x="333.0" y="934.6" width="13.0" height="13.0" fill="#E3C64A" stroke="#000000" stroke-width="1.8"/><rect x="355.0" y="952.6" width="13.0" height="13.0" fill="#3B6EA5" stroke="#000000" stroke-width="1.5"/><rect x="355.0" y="934.6" width="13.0" height="13.0" fill="#3B6EA5" stroke="#000000" stroke-width="1.5"/></g>
      <g class="ordination-wheat-shape">
        <path d="M 306.5,983.1 H 350.5 A 24,24 0 0 1 350.5,1031.1 H 306.5 A 24,24 0 0 1 306.5,983.1 Z" fill="#EFE4C6" stroke="#000000" stroke-width="2" stroke-linecap="round" stroke-linejoin="round" /><g class="coin-icon" transform="translate(306.5 1007.4) scale(1.22)" aria-label="Silver coin">
          <circle cx="0" cy="0" r="9.6" fill="none" stroke="#3A2F1E" stroke-width="1.45" />
          <circle cx="0" cy="0" r="6.55" fill="none" stroke="#3A2F1E" stroke-width="0.98" />
          <line x1="2.0" y1="-4.8" x2="6.2" y2="-4.8" stroke="#3A2F1E" stroke-width="1.08" stroke-linecap="round" />
          <line x1="4.1" y1="-6.9" x2="4.1" y2="-2.7" stroke="#3A2F1E" stroke-width="1.08" stroke-linecap="round" />
        </g></g>
      <path d="M 134.0,617.2 H 337.0 V 718.7 A 101.5,101.5 0 0 1 134.0,718.7 V 617.2 Z" class="board-circle" />
      <text x="235.5" y="668.0" class="circle-label">Construct</text>
      <g class="construct-cube-tally" aria-label="cube counts"><line x1="191.5" y1="737.7" x2="279.5" y2="737.7" stroke="#3A2F1E" stroke-opacity="0.55" stroke-width="1.6" stroke-linecap="round"/><rect x="196.0" y="722.2" width="13.0" height="13.0" fill="#FFFFFF" stroke="#000000" stroke-width="1.8"/><rect x="196.0" y="704.2" width="13.0" height="13.0" fill="#FFFFFF" stroke="#000000" stroke-width="1.8"/><rect x="218.0" y="722.2" width="13.0" height="13.0" fill="#C94C4C" stroke="#000000" stroke-width="1.5"/><rect x="218.0" y="704.2" width="13.0" height="13.0" fill="#C94C4C" stroke="#000000" stroke-width="1.5"/><rect x="240.0" y="722.2" width="13.0" height="13.0" fill="#E3C64A" stroke="#000000" stroke-width="1.8"/><rect x="240.0" y="704.2" width="13.0" height="13.0" fill="#E3C64A" stroke="#000000" stroke-width="1.8"/><rect x="262.0" y="722.2" width="13.0" height="13.0" fill="#3B6EA5" stroke="#000000" stroke-width="1.5"/><rect x="262.0" y="704.2" width="13.0" height="13.0" fill="#3B6EA5" stroke="#000000" stroke-width="1.5"/></g>
      <g class="construct-wheat-shape">
        <path d="M 213.5,752.7 H 257.5 A 24,24 0 0 1 257.5,800.7 H 213.5 A 24,24 0 0 1 213.5,752.7 Z" fill="#EFE4C6" stroke="#000000" stroke-width="2" stroke-linecap="round" stroke-linejoin="round" />
        <g class="wheat-icon" transform="translate(213.5 780.0) scale(1.18)">
          <line x1="0" y1="7.0" x2="-8.2" y2="-10.8" stroke="#3A2F1E" stroke-width="1.35" stroke-linecap="round" />
          <ellipse cx="-6.8" cy="-9.4" rx="1.95" ry="3.25" fill="#3A2F1E" transform="rotate(-22 -6.8 -9.4)" />
          <line x1="0" y1="7.0" x2="-4.6" y2="-13.0" stroke="#3A2F1E" stroke-width="1.35" stroke-linecap="round" />
          <ellipse cx="-3.8" cy="-11.3" rx="1.95" ry="3.25" fill="#3A2F1E" transform="rotate(-10 -3.8 -11.3)" />
          <line x1="0" y1="7.0" x2="0.9" y2="-13.8" stroke="#3A2F1E" stroke-width="1.35" stroke-linecap="round" />
          <ellipse cx="0.6" cy="-12.1" rx="1.95" ry="3.25" fill="#3A2F1E" transform="rotate(2 0.6 -12.1)" />
          <line x1="0" y1="7.0" x2="5.9" y2="-12.3" stroke="#3A2F1E" stroke-width="1.35" stroke-linecap="round" />
          <ellipse cx="4.7" cy="-10.8" rx="1.95" ry="3.25" fill="#3A2F1E" transform="rotate(14 4.7 -10.8)" />
          <line x1="0" y1="7.0" x2="9.6" y2="-9.1" stroke="#3A2F1E" stroke-width="1.35" stroke-linecap="round" />
          <ellipse cx="8.0" cy="-7.6" rx="1.95" ry="3.25" fill="#3A2F1E" transform="rotate(24 8.0 -7.6)" />
          <line x1="-5.2" y1="8.0" x2="5.2" y2="8.0" stroke="#3A2F1E" stroke-width="1.46" />
        </g>
      </g>
      <path d="M 226.5,387.3 H 429.5 V 488.8 A 101.5,101.5 0 0 1 226.5,488.8 V 387.3 Z" class="board-circle" />
      <text x="328.0" y="438.1" class="circle-label">Give Alms</text>
      <g class="give-alms-cube-tally" aria-label="cube counts"><line x1="284.0" y1="507.8" x2="372.0" y2="507.8" stroke="#3A2F1E" stroke-opacity="0.55" stroke-width="1.6" stroke-linecap="round"/><rect x="288.5" y="492.3" width="13.0" height="13.0" fill="#FFFFFF" stroke="#000000" stroke-width="1.8"/><rect x="288.5" y="474.3" width="13.0" height="13.0" fill="#FFFFFF" stroke="#000000" stroke-width="1.8"/><rect x="310.5" y="492.3" width="13.0" height="13.0" fill="#C94C4C" stroke="#000000" stroke-width="1.5"/><rect x="310.5" y="474.3" width="13.0" height="13.0" fill="#C94C4C" stroke="#000000" stroke-width="1.5"/><rect x="332.5" y="492.3" width="13.0" height="13.0" fill="#E3C64A" stroke="#000000" stroke-width="1.8"/><rect x="332.5" y="474.3" width="13.0" height="13.0" fill="#E3C64A" stroke="#000000" stroke-width="1.8"/><rect x="354.5" y="492.3" width="13.0" height="13.0" fill="#3B6EA5" stroke="#000000" stroke-width="1.5"/><rect x="354.5" y="474.3" width="13.0" height="13.0" fill="#3B6EA5" stroke="#000000" stroke-width="1.5"/></g>
      <g class="give-alms-wheat-shape">
        <path d="M 306.0,522.8 H 350.0 A 24,24 0 0 1 350.0,570.8 H 306.0 A 24,24 0 0 1 306.0,522.8 Z" fill="#EFE4C6" stroke="#000000" stroke-width="2" stroke-linecap="round" stroke-linejoin="round" /><g class="stone-icon" transform="translate(306.0 555.1) scale(1.15)"><path d="M 0,-17.3 L 8.8,-12.3 L 0,-7.3 L -8.8,-12.3 Z" fill="#3A2F1E" fill-opacity="0.9" stroke="#3A2F1E" stroke-width="1.0" stroke-linejoin="round" /><path d="M 8.8,-12.3 L 8.8,-2.3 L 0,2.7 L 0,-7.3 Z" fill="#3A2F1E" fill-opacity="0.55" stroke="#3A2F1E" stroke-width="1.0" stroke-linejoin="round" /><path d="M -8.8,-12.3 L 0,-7.3 L 0,2.7 L -8.8,-2.3 Z" fill="#3A2F1E" fill-opacity="0.75" stroke="#3A2F1E" stroke-width="1.0" stroke-linejoin="round" /></g></g>
    
      <g class="ornament-inset" aria-hidden="true"><path d="M 457.3,300.5 H 645.3 V 394.5 A 94.0,94.0 0 0 1 457.3,394.5 V 300.5 Z" fill="none" stroke="#3A2F1E" stroke-opacity="0.28" stroke-width="1.2" /><path d="M 681.5,394.7 H 869.5 V 488.7 A 94.0,94.0 0 0 1 681.5,488.7 V 394.7 Z" fill="none" stroke="#3A2F1E" stroke-opacity="0.28" stroke-width="1.2" /><path d="M 774.3,624.7 H 962.3 V 718.7 A 94.0,94.0 0 0 1 774.3,718.7 V 624.7 Z" fill="none" stroke="#3A2F1E" stroke-opacity="0.28" stroke-width="1.2" /><path d="M 681.4,855.1 H 869.4 V 949.1 A 94.0,94.0 0 0 1 681.4,949.1 V 855.1 Z" fill="none" stroke="#3A2F1E" stroke-opacity="0.28" stroke-width="1.2" /><path d="M 457.5,949.7 H 645.5 V 1043.7 A 94.0,94.0 0 0 1 457.5,1043.7 V 949.7 Z" fill="none" stroke="#3A2F1E" stroke-opacity="0.28" stroke-width="1.2" /><path d="M 234.5,855.1 H 422.5 V 949.1 A 94.0,94.0 0 0 1 234.5,949.1 V 855.1 Z" fill="none" stroke="#3A2F1E" stroke-opacity="0.28" stroke-width="1.2" /><path d="M 141.5,624.7 H 329.5 V 718.7 A 94.0,94.0 0 0 1 141.5,718.7 V 624.7 Z" fill="none" stroke="#3A2F1E" stroke-opacity="0.28" stroke-width="1.2" /><path d="M 234.0,394.8 H 422.0 V 488.8 A 94.0,94.0 0 0 1 234.0,488.8 V 394.8 Z" fill="none" stroke="#3A2F1E" stroke-opacity="0.28" stroke-width="1.2" /><path d="M 457.0,624.8 H 645.0 V 718.8 A 94.0,94.0 0 0 1 457.0,718.8 V 624.8 Z" fill="none" stroke="#3A2F1E" stroke-opacity="0.28" stroke-width="1.2" /></g>
      <g class="ornament-header" aria-hidden="true"><g fill="none" stroke="#3A2F1E" stroke-opacity="0.34" stroke-width="1.3" stroke-linecap="round"><circle cx="551.3" cy="311.9" r="4.6" /><circle cx="555.3" cy="318.8" r="4.6" /><circle cx="547.3" cy="318.8" r="4.6" /><path d="M 507.3,316.5 H 536.3 M 566.3,316.5 H 595.3" /></g><g fill="none" stroke="#3A2F1E" stroke-opacity="0.34" stroke-width="1.3" stroke-linecap="round"><circle cx="775.5" cy="406.1" r="4.6" /><circle cx="779.5" cy="413.0" r="4.6" /><circle cx="771.5" cy="413.0" r="4.6" /><path d="M 731.5,410.7 H 760.5 M 790.5,410.7 H 819.5" /></g><g fill="none" stroke="#3A2F1E" stroke-opacity="0.34" stroke-width="1.3" stroke-linecap="round"><circle cx="868.3" cy="636.1" r="4.6" /><circle cx="872.3" cy="643.0" r="4.6" /><circle cx="864.3" cy="643.0" r="4.6" /><path d="M 824.3,640.7 H 853.3 M 883.3,640.7 H 912.3" /></g><g fill="none" stroke="#3A2F1E" stroke-opacity="0.34" stroke-width="1.3" stroke-linecap="round"><circle cx="775.4" cy="866.5" r="4.6" /><circle cx="779.4" cy="873.4" r="4.6" /><circle cx="771.4" cy="873.4" r="4.6" /><path d="M 731.4,871.1 H 760.4 M 790.4,871.1 H 819.4" /></g><g fill="none" stroke="#3A2F1E" stroke-opacity="0.34" stroke-width="1.3" stroke-linecap="round"><circle cx="551.5" cy="961.1" r="4.6" /><circle cx="555.5" cy="968.0" r="4.6" /><circle cx="547.5" cy="968.0" r="4.6" /><path d="M 507.5,965.7 H 536.5 M 566.5,965.7 H 595.5" /></g><g fill="none" stroke="#3A2F1E" stroke-opacity="0.34" stroke-width="1.3" stroke-linecap="round"><circle cx="328.5" cy="866.5" r="4.6" /><circle cx="332.5" cy="873.4" r="4.6" /><circle cx="324.5" cy="873.4" r="4.6" /><path d="M 284.5,871.1 H 313.5 M 343.5,871.1 H 372.5" /></g><g fill="none" stroke="#3A2F1E" stroke-opacity="0.34" stroke-width="1.3" stroke-linecap="round"><circle cx="235.5" cy="636.1" r="4.6" /><circle cx="239.5" cy="643.0" r="4.6" /><circle cx="231.5" cy="643.0" r="4.6" /><path d="M 191.5,640.7 H 220.5 M 250.5,640.7 H 279.5" /></g><g fill="none" stroke="#3A2F1E" stroke-opacity="0.34" stroke-width="1.3" stroke-linecap="round"><circle cx="328.0" cy="406.2" r="4.6" /><circle cx="332.0" cy="413.1" r="4.6" /><circle cx="324.0" cy="413.1" r="4.6" /><path d="M 284.0,410.8 H 313.0 M 343.0,410.8 H 372.0" /></g><g fill="none" stroke="#3A2F1E" stroke-opacity="0.34" stroke-width="1.3" stroke-linecap="round"><circle cx="551.0" cy="636.2" r="4.6" /><circle cx="555.0" cy="643.1" r="4.6" /><circle cx="547.0" cy="643.1" r="4.6" /><path d="M 507.0,640.8 H 536.0 M 566.0,640.8 H 595.0" /></g></g>
    </g>
  </g>
</svg>
